Coordinates
version=1
nRows=23
nColumns=30
inDegrees=yes

Units are S.I. units (second, meters, Newtons, ...)
Angles are in degrees.

endheader
time	floatyaw	floatroll	floatpitch	floatx	floaty	floatz	pro_sup_l	deviation_l	flexion_l	cmc_flexion_l	cmc_abduction_l	mp_flexion_l	ip_flexion_l	2mcp_flexion_l	2mcp_abduction_l	2pm_flexion_l	2md_flexion_l	3mcp_flexion_l	3mcp_abduction_l	3pm_flexion_l	3md_flexion_l	4mcp_flexion_l	4mcp_abduction_l	4pm_flexion_l	4md_flexion_l	5mcp_flexion_l	5mcp_abduction_l	5pm_flexion_l	5md_flexion_l
-0.995000	-1.782892	-2.032873	94.941017	-0.007309	-0.271881	0.011758	90.246036	1.212652	-1.069782	26.241891	2.919402	-17.907912	-32.505805	19.159475	5.543874	32.765058	20.513688	8.456581	3.957539	34.923096	22.204249	-2.245292	-3.647515	51.539913	33.603165	-21.579483	-7.625339	60.528687	50.196582
-0.985000	-1.782892	-2.032873	94.941017	-0.007296	-0.271889	0.011763	90.244397	1.211207	-1.075639	26.277507	2.940559	-17.921830	-32.567450	19.141596	5.538795	32.818919	20.509834	8.438223	3.959969	34.961670	22.200958	-2.261476	-3.656899	51.566551	33.597245	-21.561578	-7.630942	60.553990	50.178714
-0.975000	-1.782892	-2.032873	94.941017	-0.007278	-0.271887	0.011764	90.247584	1.210587	-1.082496	26.321563	2.969517	-17.939987	-32.646429	19.137033	5.541929	32.863499	20.509622	8.428758	3.963785	34.996952	22.199319	-2.264664	-3.663545	51.592657	33.584409	-21.546597	-7.643729	60.595948	50.149895
-0.965000	-1.782892	-2.032873	94.941017	-0.007257	-0.271881	0.011763	90.254934	1.209225	-1.094507	26.378957	3.009411	-17.968567	-32.741855	19.150197	5.555924	32.890289	20.515513	8.439652	3.969132	35.017595	22.195991	-2.239574	-3.665248	51.600528	33.564357	-21.527718	-7.662745	60.643963	50.115186
-0.955000	-1.782892	-2.032873	94.941017	-0.007238	-0.271877	0.011762	90.262439	1.205741	-1.112402	26.443938	3.062054	-18.006364	-32.843097	19.179438	5.578813	32.895958	20.528914	8.474566	3.975067	35.016552	22.190077	-2.184213	-3.661982	51.581898	33.543016	-21.502526	-7.686763	60.688337	50.078272
-0.945000	-1.782892	-2.032873	94.941017	-0.007222	-0.271875	0.011761	90.264814	1.199964	-1.131853	26.501316	3.125168	-18.044359	-32.932102	19.215660	5.605056	32.884810	20.550504	8.524785	3.979958	34.996526	22.185167	-2.112697	-3.655837	51.543593	33.528873	-21.477012	-7.714307	60.727540	50.040310
-0.935000	-1.782892	-2.032873	94.941017	-0.007209	-0.271870	0.011757	90.258760	1.193223	-1.145270	26.533823	3.191063	-18.069982	-32.989762	19.245480	5.628670	32.866864	20.579993	8.572316	3.982401	34.969462	22.187744	-2.048053	-3.649840	51.503202	33.527094	-21.463797	-7.743130	60.769909	50.000269
-0.925000	-1.782892	-2.032873	94.941017	-0.007197	-0.271854	0.011747	90.245356	1.187752	-1.145882	26.531071	3.247658	-18.073448	-33.002966	19.256992	5.646324	32.852753	20.615598	8.598933	3.981908	34.950186	22.202969	-2.009930	-3.646485	51.478090	33.535527	-21.475528	-7.769980	60.828090	49.956276
-0.915000	-1.782892	-2.032873	94.941017	-0.007187	-0.271825	0.011728	90.230052	1.185518	-1.131581	26.495022	3.281858	-18.052747	-32.969166	19.244884	5.658400	32.848327	20.654006	8.595811	3.978941	34.947867	22.230735	-2.004902	-3.646757	51.475039	33.545357	-21.517142	-7.791182	60.909314	49.906964
-0.905000	-1.782892	-2.032873	94.941017	-0.007180	-0.271786	0.011704	90.220279	1.187121	-1.106436	26.439377	3.284419	-18.014910	-32.897202	19.212793	5.667624	32.851608	20.691008	8.568549	3.974503	34.960260	22.264450	-2.024350	-3.649986	51.486581	33.545870	-21.581158	-7.803856	61.007393	49.852356
-0.895000	-1.782892	-2.032873	94.941017	-0.007181	-0.271747	0.011683	90.222012	1.191383	-1.079176	26.383449	3.254491	-17.972967	-32.804457	19.172336	5.676516	32.853563	20.722256	8.534945	3.969795	34.974283	22.293254	-2.050094	-3.654475	51.495527	33.530218	-21.648922	-7.806986	61.101714	49.794470
-0.885000	-1.782892	-2.032873	94.941017	-0.007194	-0.271718	0.011676	90.236966	1.195824	-1.059359	26.343427	3.201382	-17.940060	-32.711024	19.139055	5.685529	32.842614	20.743728	8.516350	3.966083	34.973073	22.306639	-2.064248	-3.658578	51.484673	33.498875	-21.698199	-7.801692	61.164838	49.737561
-0.875000	-1.782892	-2.032873	94.941017	-0.007219	-0.271706	0.011687	90.261714	1.197768	-1.053047	26.325483	3.141913	-17.923818	-32.632925	19.126410	5.693020	32.810921	20.752164	8.526772	3.964534	34.945723	22.299318	-2.058318	-3.661695	51.446266	33.459404	-21.713884	-7.790625	61.175337	49.687383
-0.865000	-1.782892	-2.032873	94.941017	-0.007254	-0.271710	0.011718	90.289151	1.195535	-1.060184	26.324617	3.093869	-17.924201	-32.577662	19.140172	5.696761	32.759131	20.745881	8.565598	3.965872	34.893965	22.273886	-2.037119	-3.664587	51.386276	33.423342	-21.695990	-7.777023	61.128921	49.649289
-0.855000	-1.782892	-2.032873	94.941017	-0.007290	-0.271721	0.011763	90.311777	1.189220	-1.075014	26.329926	3.068232	-17.935746	-32.544399	19.175969	5.695682	32.696783	20.725708	8.618078	3.970076	34.831751	22.239624	-2.015676	-3.668759	51.321449	33.401978	-21.659765	-7.764010	61.040951	49.626257
-0.845000	-1.782892	-2.032873	94.941017	-0.007321	-0.271732	0.011810	90.325300	1.180714	-1.089185	26.332708	3.063778	-17.952182	-32.528016	19.221214	5.690532	32.638088	20.695154	8.663094	3.976448	34.778096	22.207828	-2.011114	-3.675289	51.271114	33.402511	-21.627547	-7.754268	60.938095	49.618379
-0.835000	-1.782892	-2.032873	94.941017	-0.007341	-0.271736	0.011850	90.330544	1.172901	-1.095761	26.331932	3.067283	-17.970060	-32.523916	19.260303	5.683093	32.595679	20.659358	8.683418	3.984021	34.747608	22.186324	-2.034151	-3.683866	51.248445	33.425576	-21.617360	-7.749738	60.843979	49.624233
-0.825000	-1.782892	-2.032873	94.941017	-0.007351	-0.271734	0.011879	90.332355	1.168356	-1.092061	26.333617	3.060346	-17.989275	-32.530555	19.280559	5.674746	32.575992	20.623516	8.672848	3.992021	34.744186	22.176601	-2.084402	-3.692709	51.255643	33.464927	-21.635106	-7.750971	60.768087	49.642983
-0.815000	-1.782892	-2.032873	94.941017	-0.007355	-0.271728	0.011896	90.336183	1.168249	-1.080142	26.345144	3.029810	-18.010758	-32.548638	19.276499	5.665587	32.578286	20.591959	8.637227	4.000027	34.760967	22.175177	-2.150928	-3.699454	51.284687	33.509649	-21.674183	-7.756315	60.704972	49.675487
-0.805000	-1.782892	-2.032873	94.941017	-0.007358	-0.271723	0.011904	90.344749	1.172140	-1.065078	26.369135	2.975530	-18.033583	-32.578381	19.251014	5.654740	32.596834	20.568220	8.590048	4.007654	34.785816	22.177753	-2.216824	-3.702480	51.322165	33.548186	-21.721145	-7.761676	60.643350	49.723362
-0.795000	-1.782892	-2.032873	94.941017	-0.007362	-0.271722	0.011904	90.356997	1.178711	-1.052226	26.401567	2.910429	-18.053915	-32.617390	19.213306	5.641561	32.624479	20.555319	8.545647	4.014032	34.808900	22.182792	-2.265463	-3.701907	51.355216	33.572465	-21.762693	-7.761576	60.577522	49.786398
-0.785000	-1.782892	-2.032873	94.941017	-0.007363	-0.271721	0.011899	90.369643	1.186781	-1.044847	26.435056	2.853240	-18.066778	-32.660793	19.174739	5.626815	32.655822	20.555215	8.513273	4.017662	34.828313	22.191909	-2.286161	-3.699656	51.375993	33.580299	-21.789737	-7.751482	60.512267	49.860051
-0.775000	-1.782892	-2.032873	94.941017	-0.007353	-0.271717	0.011891	90.379744	1.195840	-1.042937	26.463935	2.819181	-18.069420	-32.703030	19.144734	5.612925	32.688669	20.567134	8.494344	4.017064	34.850844	22.207047	-2.277574	-3.698471	51.383350	33.575113	-21.797373	-7.730465	60.457748	49.934799
